# xmcd
#
# Track frame offsets:
#	150
#	12970
#	22570
#	33743
#	46116
#	58492
#	69505
#	82851
#	93502
#	104902
#	113526
#	123793
#
# Disc length: 1786 seconds
#
# Revision: 1
# Processed by: cddbd v1.5.2PL0 Copyright (c) Steve Scherf et al.
# Submitted via: audiograbber 1.83.01
#
DISCID=9106f80c
DTITLE=Compton Brothers - Haunted House Charlie Brown
DYEAR=1970
DGENRE=Country
TTITLE0=Haunted House
TTITLE1=Brown Eyed Handsome Man
TTITLE2=Everybody Needs Somebody
TTITLE3=Sounds of an Angel's Wings
TTITLE4=Stagger Lee
TTITLE5=Nadine
TTITLE6=Charlie Brown
TTITLE7=I Wanna Sing a Country Song
TTITLE8=Sweet Thang and Cisco
TTITLE9=Just a Dream Away
TTITLE10=Living on a Prayer, a Hope and a Hand-Me-Down
TTITLE11=Bird Dog
EXTD=
EXTT0=
EXTT1=
EXTT2=
EXTT3=
EXTT4=
EXTT5=
EXTT6=
EXTT7=
EXTT8=
EXTT9=
EXTT10=
EXTT11=
PLAYORDER=
